<?xml version="1.0" encoding="UTF-8"?>
<!DOCTYPE svg PUBLIC "-//W3C//DTD SVG 1.1//EN" "http://www.w3.org/Graphics/SVG/1.1/DTD/svg11.dtd">
<!-- Creator: CorelDRAW 2021 (64-Bit) -->
<svg xmlns="http://www.w3.org/2000/svg" xml:space="preserve" width="60mm" height="60mm" version="1.1" style="shape-rendering:geometricPrecision; text-rendering:geometricPrecision; image-rendering:optimizeQuality; fill-rule:evenodd; clip-rule:evenodd"
viewBox="0 0 6000 6000"
 xmlns:xlink="http://www.w3.org/1999/xlink"
 xmlns:xodm="http://www.corel.com/coreldraw/odm/2003">
 <defs>
  <style type="text/css">
   <![CDATA[
    .fil1 {fill:#26A371;fill-rule:nonzero}
    .fil0 {fill:#3D3D45;fill-rule:nonzero}
   ]]>
  </style>
 </defs>
 <g id="图层_x0020_1">
  <metadata id="CorelCorpID_0Corel-Layer"/>
  <g id="_2170413510768">
   <g id="_1425148076352">
    <path class="fil0" d="M4987.71 1013.63c0,0 -1196.01,-136.93 -1794.02,-709.48 -74.8,-87.34 -142.35,-87.34 -199.29,-87.34 -56.94,0 -124.62,0 -199.3,74.92 -598,572.55 -1794.01,721.9 -1794.01,721.9 -219.33,0 -398.72,179.26 -398.72,398.46l-0.12 2191.16c0,597.65 1196.01,2191.28 2392.02,2191.28 1196.01,0 2392.03,-1593.63 2392.03,-2191.28l0.11 -2191.16c0,-219.07 -179.39,-398.46 -398.7,-398.46zm-154.66 2989.54c-120.04,214.25 -291.83,443.58 -483.52,645.9 -213.29,224.99 -446.12,411.86 -673.28,540.58 -240.93,136.44 -469.41,205.93 -678.96,206.53l-0.12 -2387.08 -1996.21 0 0 -1596.4c0.37,-0.24 0.6,-0.48 0.84,-0.72l24.02 0.11 24.61 -3.13c13.51,-1.69 335.13,-42.58 734.92,-159.13 507.54,-147.89 911.07,-347.79 1201.8,-594.98 3.27,2.9 6.76,5.67 10.02,8.56l0 2345.69 1990.54 0 0 594.15c0,42.83 -32.33,181.44 -154.79,399.8l0.13 0.12z" p-id="23544"/>
    <path class="fil1" d="M2994.4 216.81c-56.94,0 -124.63,0 -199.3,74.91 -598,572.56 -1794.01,721.9 -1794.01,721.9 -219.33,0 -398.72,179.27 -398.72,398.47l-0.12 2191.17c0,597.64 1196.01,2191.27 2392.02,2191.27 1196.01,0 2392.03,-1593.63 2392.03,-2191.27l0.02 -600.77 -398.61 6.62 0 594.15c0,42.82 -32.33,181.43 -154.78,399.79l0.12 0.12c-120.04,214.25 -291.83,443.58 -483.52,645.9 -213.29,224.99 -446.12,411.86 -673.28,540.58 -240.93,136.44 -469.41,205.93 -678.96,206.53l-0.12 -2387.07 -1996.21 0 0 -1596.41c0.37,-0.24 0.6,-0.49 0.85,-0.73l24 0.12 24.61 -3.13c13.52,-1.69 335.14,-42.59 734.93,-159.13 507.54,-147.89 911.07,-347.79 1201.81,-594.98 15.51,13.81 7.24,-378.25 7.24,-438.04z" p-id="23544"/>
   </g>
  </g>
 </g>
</svg>
