<?xml version="1.0" encoding="UTF-8"?>
<!DOCTYPE svg PUBLIC "-//W3C//DTD SVG 1.1//EN" "http://www.w3.org/Graphics/SVG/1.1/DTD/svg11.dtd">
<!-- Creator: CorelDRAW 2021 (64-Bit) -->
<svg xmlns="http://www.w3.org/2000/svg" xml:space="preserve" width="10mm" height="10mm" version="1.1" style="shape-rendering:geometricPrecision; text-rendering:geometricPrecision; image-rendering:optimizeQuality; fill-rule:evenodd; clip-rule:evenodd"
viewBox="0 0 1000 1000"
 xmlns:xlink="http://www.w3.org/1999/xlink"
 xmlns:xodm="http://www.corel.com/coreldraw/odm/2003">
 <defs>
  <style type="text/css">
   <![CDATA[
    .fil1 {fill:white}
    .fil0 {fill:white;fill-rule:nonzero}
   ]]>
  </style>
 </defs>
 <g id="图层_x0020_1">
  <metadata id="CorelCorpID_0Corel-Layer"/>
  <g id="_2497366016608">
   <g id="_1467294119056">
    <path class="fil0" d="M460.95 895.12l-310.49 -172.06c-13.79,-6.62 -20.7,-19.85 -20.7,-33.09l0 -344.08 310.49 172.04c6.91,6.63 13.79,6.63 20.7,6.63l0 370.58 0 -0.02zm-351.88 -655.11c-34.51,19.84 -55.2,52.94 -55.2,86.01l0 363.95c0,39.7 20.69,72.79 55.2,86.01l331.18 178.68c34.51,19.85 75.89,19.85 103.49,0l331.19 -178.66c34.5,-19.84 55.2,-52.94 55.2,-86.01l0 -363.95c0,-39.69 -20.7,-72.79 -55.2,-86.02l-331.19 -178.67c-34.5,-19.85 -75.88,-19.85 -103.49,0l-331.18 178.67 0 -0.01z" p-id="10457"/>
    <path class="fil1" d="M396.39 528.68l-234.31 -130.97 1.9 261.7c0.11,15.45 7.9,28.68 21.64,36.74l233.26 136.92 0 -266.87c0,-15.88 -8.18,-29.52 -22.49,-37.52z"/>
   </g>
  </g>
 </g>
</svg>
