<?xml version="1.0" encoding="UTF-8"?>
<!DOCTYPE svg PUBLIC "-//W3C//DTD SVG 1.1//EN" "http://www.w3.org/Graphics/SVG/1.1/DTD/svg11.dtd">
<!-- Creator: CorelDRAW 2021 (64-Bit) -->
<svg xmlns="http://www.w3.org/2000/svg" xml:space="preserve" width="10mm" height="10mm" version="1.1" style="shape-rendering:geometricPrecision; text-rendering:geometricPrecision; image-rendering:optimizeQuality; fill-rule:evenodd; clip-rule:evenodd"
viewBox="0 0 1000 1000"
 xmlns:xlink="http://www.w3.org/1999/xlink"
 xmlns:xodm="http://www.corel.com/coreldraw/odm/2003">
 <defs>
  <style type="text/css">
   <![CDATA[
    .fil0 {fill:white;fill-rule:nonzero}
   ]]>
  </style>
 </defs>
 <g id="图层_x0020_1">
  <metadata id="CorelCorpID_0Corel-Layer"/>
  <g id="_2461095589200">
   <g id="_1467529750896">
    <path class="fil0" d="M503.47 449.19c-13.05,5.15 -9.57,6.01 -25.47,-0.32l-425.37 -176.66c-3.48,-3.26 -5.47,-7.78 -5.68,-12.53 -0.1,-4.74 1.59,-9.37 4.95,-12.83l414.74 -176.49c9.37,-4.42 19.04,-6.85 36.2,0.2l422.52 173.12c7.27,7.04 7.57,18.53 0.83,25.47l-422.72 180.04zm12.83 481.14c0,10.73 8.73,19.47 19.57,19.47l404.94 -211.1c15.78,-9.9 19.47,-27.37 19.47,-52.72l0 -356.22c0,-5.16 -2,-10.1 -5.68,-13.79 -3.69,-3.69 -8.64,-5.68 -13.79,-5.68l-405.04 169.96c-19.58,7.57 -19.58,17.57 -19.58,28.3l0.11 421.78zm-68.07 -450.08l-404.94 -169.96c-5.16,0 -10.11,1.99 -13.79,5.68 -3.69,3.69 -5.68,8.63 -5.68,13.79l0 409.45c0,4.32 -2.63,10.63 19.47,19.47l404.94 191.22c10.73,0 19.47,-8.74 19.47,-19.47l0 -421.88c0,-10.73 0,-20.73 -19.47,-28.3zm-132.19 100.81c-51.88,-22.62 -103.65,-45.25 -155.44,-68.07 -8.53,-3.68 -12.83,-5.25 -12.83,-11.99l0 -45.07c-0.2,-5.88 3.36,-13.68 10.21,-11.05l159.63 70.09c14.85,7.04 10.31,7.9 10.94,34.71l0 22.32c0.1,4.42 -4.12,12.62 -12.53,9.04l0.02 0.02zm0 0z" p-id="4664"/>
    <path class="fil0" d="M503.47 449.19c-13.05,5.15 -9.57,6.01 -25.47,-0.32l-425.37 -176.66c-3.48,-3.26 -5.47,-7.78 -5.68,-12.53 -0.1,-4.74 1.59,-9.37 4.95,-12.83l414.74 -176.49c9.37,-4.42 19.04,-6.85 36.2,0.2l422.52 173.12c7.27,7.04 7.57,18.53 0.83,25.47l-422.72 180.04z" p-id="4664"/>
   </g>
  </g>
 </g>
</svg>
