<?xml version="1.0" encoding="UTF-8"?>
<!DOCTYPE svg PUBLIC "-//W3C//DTD SVG 1.1//EN" "http://www.w3.org/Graphics/SVG/1.1/DTD/svg11.dtd">
<!-- Creator: CorelDRAW 2021 (64-Bit) -->
<svg xmlns="http://www.w3.org/2000/svg" xml:space="preserve" width="60mm" height="60mm" version="1.1" style="shape-rendering:geometricPrecision; text-rendering:geometricPrecision; image-rendering:optimizeQuality; fill-rule:evenodd; clip-rule:evenodd"
viewBox="0 0 6000 6000"
 xmlns:xlink="http://www.w3.org/1999/xlink"
 xmlns:xodm="http://www.corel.com/coreldraw/odm/2003">
 <defs>
  <style type="text/css">
   <![CDATA[
    .fil0 {fill:#26A371;fill-rule:nonzero}
    .fil1 {fill:#3D3D45;fill-rule:nonzero}
   ]]>
  </style>
 </defs>
 <g id="图层_x0020_1">
  <metadata id="CorelCorpID_0Corel-Layer"/>
  <g id="_2170426811792">
   <g id="_1425298039872">
    <path class="fil0" d="M3091.69 507.98c-355.67,-14.18 -720.03,47.72 -1069.76,195.32 -349.72,147.6 -648.22,365.4 -886.25,630.18 353.69,-6.81 711.82,-79.47 1057.1,-225.28 345.47,-145.71 647.38,-351.61 898.91,-600.22zm-441.47 1683.97c686.49,-289.72 1251.37,-747.92 1667.15,-1306.37 -201.37,-125.21 -419.56,-221.88 -647.85,-286.04 -58.49,71.06 -121.14,141.08 -185.4,206.94 -313.43,322.42 -684.03,575.19 -1101.5,751.42 -417.48,176.23 -857.25,265.34 -1306.85,265.05 -92.32,0 -185.02,-4.15 -277.15,-11.52 -113.11,208.17 -196.83,432.31 -247.2,663.72 690.09,91.66 1412.59,6.62 2098.99,-283.1l-0.19 -0.1z" p-id="11389"/>
    <path class="fil0" d="M3107.56 3275.6c825.41,-348.39 1514.74,-885.49 2039.08,-1540.05 -122.18,-207.61 -271.19,-392.25 -440.71,-551.28 -116.14,155.25 -243.51,304.18 -378.55,443.08 -423.14,435.24 -923.58,776.65 -1487.41,1014.58 -563.85,237.94 -1157.55,358.31 -1764.58,357.84 -193.52,-0.19 -389.03,-12.95 -581.23,-37.88 0,14.35 -0.28,30.42 -0.28,45.16 0,221.21 29.67,441.75 87.88,655.12 834.75,80.98 1700.41,-38.17 2525.8,-386.57z" p-id="11390"/>
    <path class="fil0" d="M5370.31 2231.17c-63.88,73.51 -131.82,146.27 -199.76,216.29 -532.94,548.15 -1163.22,978.1 -1873.34,1277.74 -710.11,299.73 -1457.84,451.4 -2222.39,450.73 -97.14,0.1 -197.39,-3.4 -294.15,-8.22 139.37,266.1 321.46,497.99 534.17,690.47 753.68,-27.21 1514.92,-189.08 2249.98,-499.31 735.07,-310.22 1382.06,-742.62 1927.39,-1263.66 10.49,-286.69 -28.63,-578.86 -121.99,-864.42l0.09 0.38zm-3385.51 3061.68c607.88,268.08 1320.54,294.82 1980.96,16.06 660.32,-278.66 1138.46,-808.01 1370.44,-1430.54 -479.94,377.41 -1009.1,689.15 -1581.35,930.67 -572.26,241.53 -1164.72,403.21 -1769.96,483.72l-0.09 0.09z" p-id="11391"/>
    <path class="fil1" d="M1984.8 5292.85c607.88,268.08 1320.54,294.82 1980.96,16.06 660.32,-278.66 1138.46,-808.01 1370.44,-1430.54 -479.94,377.41 -1009.1,689.15 -1581.35,930.67 -572.26,241.53 -1164.72,403.21 -1769.96,483.72l-0.09 0.09z" p-id="11391"/>
    <path class="fil1" d="M3091.69 507.98c-355.67,-14.18 -720.03,47.72 -1069.76,195.32 -349.72,147.6 -648.22,365.4 -886.25,630.18 353.69,-6.81 711.82,-79.47 1057.1,-225.28 345.47,-145.71 647.38,-351.61 898.91,-600.22z" p-id="11389"/>
   </g>
  </g>
 </g>
</svg>
