<?xml version="1.0" encoding="UTF-8"?>
<!DOCTYPE svg PUBLIC "-//W3C//DTD SVG 1.1//EN" "http://www.w3.org/Graphics/SVG/1.1/DTD/svg11.dtd">
<!-- Creator: CorelDRAW 2021 (64-Bit) -->
<svg xmlns="http://www.w3.org/2000/svg" xml:space="preserve" width="50mm" height="50mm" version="1.1" style="shape-rendering:geometricPrecision; text-rendering:geometricPrecision; image-rendering:optimizeQuality; fill-rule:evenodd; clip-rule:evenodd"
viewBox="0 0 5000 5000"
 xmlns:xlink="http://www.w3.org/1999/xlink"
 xmlns:xodm="http://www.corel.com/coreldraw/odm/2003">
 <defs>
  <style type="text/css">
   <![CDATA[
    .fil1 {fill:#3D3D45}
    .fil0 {fill:#26A371;fill-rule:nonzero}
   ]]>
  </style>
 </defs>
 <g id="图层_x0020_1">
  <metadata id="CorelCorpID_0Corel-Layer"/>
  <g id="_2170857886912">
   <path class="fil0" d="M2631.01 4288.64l1371.19 -792.24c60.9,-30.49 91.4,-91.39 91.4,-152.38l0 -1584.38 -1371.2 792.23c-30.5,30.49 -60.9,30.49 -91.39,30.49l0 1706.38 0 -0.1zm1553.98 -3016.56c152.39,91.39 243.78,243.78 243.78,396.07l0 1675.87c0,182.79 -91.39,335.17 -243.78,396.07l-1462.59 822.74c-152.39,91.39 -335.17,91.39 -457.06,0l-1462.59 -822.65c-152.38,-91.39 -243.78,-243.78 -243.78,-396.07l0 -1675.87c0,-182.78 91.4,-335.17 243.78,-396.07l1462.59 -822.74c152.39,-91.39 335.17,-91.39 457.06,0l1462.59 822.74 0 -0.09z" p-id="10457"/>
   <path class="fil1" d="M2916.1 2601.34l1034.76 -603.09 -8.36 1205.04c-0.49,71.15 -34.9,132.06 -95.59,169.2l-1030.1 630.46 0 -1228.82c0,-73.15 36.09,-135.96 99.29,-172.79z"/>
  </g>
 </g>
</svg>
