<?xml version="1.0" encoding="UTF-8"?>
<!DOCTYPE svg PUBLIC "-//W3C//DTD SVG 1.1//EN" "http://www.w3.org/Graphics/SVG/1.1/DTD/svg11.dtd">
<!-- Creator: CorelDRAW 2021 (64-Bit) -->
<svg xmlns="http://www.w3.org/2000/svg" xml:space="preserve" width="60mm" height="60mm" version="1.1" style="shape-rendering:geometricPrecision; text-rendering:geometricPrecision; image-rendering:optimizeQuality; fill-rule:evenodd; clip-rule:evenodd"
viewBox="0 0 6000 6000"
 xmlns:xlink="http://www.w3.org/1999/xlink"
 xmlns:xodm="http://www.corel.com/coreldraw/odm/2003">
 <defs>
  <style type="text/css">
   <![CDATA[
    .fil1 {fill:black;fill-rule:nonzero}
    .fil0 {fill:#26A371;fill-rule:nonzero}
   ]]>
  </style>
 </defs>
 <g id="图层_x0020_1">
  <metadata id="CorelCorpID_0Corel-Layer"/>
  <g id="_2170865609696">
   <g id="_1424862271984">
    <path class="fil0" d="M2108.44 2922.26l-1027.74 0c-323.59,0 -586.37,-262.77 -586.37,-586.37l0 -1026.44c0,-325 262.78,-587.78 586.37,-587.78l1026.45 0c324.88,0 587.66,262.78 587.66,586.37l0 1026.44c0,324.89 -262.78,587.67 -586.37,587.67l0 0.11zm2588.88 2588.77l-1026.56 0c-323.59,0 -586.37,-262.77 -586.37,-586.37l0 -1026.44c0,-323.6 262.78,-586.37 586.37,-586.37l1026.56 0c323.6,0 586.37,262.77 586.37,586.37l0 1026.44c0,323.6 -262.77,586.37 -586.37,586.37zm-2588.88 0l-1027.74 0c-323.59,0 -586.37,-262.77 -586.37,-586.37l0 -1026.44c0,-324.89 262.78,-587.66 586.37,-587.66l1026.45 0c323.59,0 586.37,262.77 586.37,586.37l0 1026.44c0.11,0.7 0.11,1.64 0.11,2.46 0,323.13 -261.95,585.08 -585.08,585.08 0,0 0,0 0,0l-0.11 0.12z" p-id="14498"/>
    <path class="fil1" d="M5322.55 2228.07l-726.21 726.21c-110.02,109.67 -259.25,171.55 -414.82,171.55 -155.58,0 -304.81,-61.88 -414.83,-171.78l-726.21 -726.21c-109.79,-109.9 -171.66,-259.14 -171.66,-414.71 0,-155.58 61.87,-304.81 171.77,-414.83l726.22 -726.21c109.9,-109.9 259.13,-171.78 414.71,-171.78 155.57,0 304.8,61.88 414.82,171.9l726.21 726.21c109.9,109.9 171.78,259.13 171.78,414.71 0,155.57 -61.88,304.81 -171.89,414.82l0.11 0.12z" p-id="14498"/>
   </g>
  </g>
 </g>
</svg>
