<?xml version="1.0" encoding="UTF-8"?>
<!DOCTYPE svg PUBLIC "-//W3C//DTD SVG 1.1//EN" "http://www.w3.org/Graphics/SVG/1.1/DTD/svg11.dtd">
<!-- Creator: CorelDRAW 2021 (64-Bit) -->
<svg xmlns="http://www.w3.org/2000/svg" xml:space="preserve" width="10mm" height="10mm" version="1.1" style="shape-rendering:geometricPrecision; text-rendering:geometricPrecision; image-rendering:optimizeQuality; fill-rule:evenodd; clip-rule:evenodd"
viewBox="0 0 1000 1000"
 xmlns:xlink="http://www.w3.org/1999/xlink"
 xmlns:xodm="http://www.corel.com/coreldraw/odm/2003">
 <defs>
  <style type="text/css">
   <![CDATA[
    .fil0 {fill:#26A371;fill-rule:nonzero}
    .fil1 {fill:#3D3D45;fill-rule:nonzero}
   ]]>
  </style>
 </defs>
 <g id="图层_x0020_1">
  <metadata id="CorelCorpID_0Corel-Layer"/>
  <path class="fil0" d="M484.44 394.52c-22.69,0 -44.31,-3.24 -60.53,-9.73l-337.17 -123.18c-28.11,-9.73 -31.35,-24.86 -31.35,-33.51 0,-7.55 4.33,-22.68 31.35,-33.5l336.11 -124.3c16.22,-6.49 37.81,-9.73 60.52,-9.73 22.69,0 44.31,3.24 60.53,9.73l337.17 124.3c28.11,9.73 31.35,24.86 31.35,33.5 0,7.56 -4.33,22.69 -31.35,33.51l-336.11 124.27c-16.22,5.4 -37.81,8.64 -60.52,8.64zm-72.41 560.92c-7.56,0 -16.22,-1.09 -23.78,-4.33l-293.95 -112.38c-34.58,-12.98 -60.53,-52.95 -60.53,-92.94l0 -375.04c0,-33.51 18.38,-55.13 46.48,-55.13 7.56,0 15.13,1.09 22.69,4.34l298.29 112.4c35.66,12.98 64.83,54.04 64.83,92.95l0 375.01c-1.09,32.41 -23.77,55.12 -54.03,55.12zm151.31 -6.48l1.09 0c-28.11,0 -45.39,-16.23 -45.39,-48.64l0 -375.01c0,-40 24.86,-79.97 59.43,-92.95l293.96 -112.4c7.55,-3.25 16.22,-4.34 24.86,-4.34 30.26,0 52.95,22.69 52.95,55.13l0 375.04c0,38.9 -30.26,79.96 -65.93,92.94l-298.29 109.16c-6.48,3.25 -15.13,1.09 -22.68,1.09l0 -0.02z" p-id="27471"/>
  <path class="fil1" d="M484.44 394.52c-22.69,0 -44.31,-3.24 -60.53,-9.73l-337.17 -123.18c-28.11,-9.73 -31.35,-24.86 -31.35,-33.51 0,-7.55 4.33,-22.68 31.35,-33.5l336.11 -124.3c16.22,-6.49 37.81,-9.73 60.52,-9.73 22.69,0 44.31,3.24 60.53,9.73l337.17 124.3c28.11,9.73 31.35,24.86 31.35,33.5 0,7.56 -4.33,22.69 -31.35,33.51l-336.11 124.27c-16.22,5.4 -37.81,8.64 -60.52,8.64z" p-id="27471"/>
 </g>
</svg>
