<?xml version="1.0" encoding="UTF-8"?>
<!DOCTYPE svg PUBLIC "-//W3C//DTD SVG 1.1//EN" "http://www.w3.org/Graphics/SVG/1.1/DTD/svg11.dtd">
<!-- Creator: CorelDRAW 2021 (64-Bit) -->
<svg xmlns="http://www.w3.org/2000/svg" xml:space="preserve" width="4.5mm" height="4.5mm" version="1.1" style="shape-rendering:geometricPrecision; text-rendering:geometricPrecision; image-rendering:optimizeQuality; fill-rule:evenodd; clip-rule:evenodd"
viewBox="0 0 450 450"
 xmlns:xlink="http://www.w3.org/1999/xlink"
 xmlns:xodm="http://www.corel.com/coreldraw/odm/2003">
 <defs>
  <style type="text/css">
   <![CDATA[
    .fil0 {fill:#26A371;fill-rule:nonzero}
   ]]>
  </style>
 </defs>
 <g id="图层_x0020_1">
  <metadata id="CorelCorpID_0Corel-Layer"/>
  <g id="_2497366003744">
   <path class="fil0" d="M402.89 91.75l-174.87 0 -48.36 -58.04c-2.98,-3.72 -6.7,-5.21 -11.16,-5.21l-122.78 0c-16.37,0 -29.77,13.39 -29.77,29.77l0 336.34c0,16.37 13.39,29.77 29.77,29.77l357.17 -0.01c16.37,0 29.77,-13.39 29.77,-29.77l0 -273.08c0,-16.37 -13.39,-29.77 -29.77,-29.77zm-104.92 187.51l-63.25 63.25c-1.49,1.49 -2.98,2.98 -5.21,3.72l-1.49 0.74c-0.74,0 -1.49,0.74 -2.23,0.74l-2.98 0.01c-3.72,0 -6.7,-1.49 -8.93,-4.46l-63.24 -63.25c-2.98,-2.98 -4.46,-6.7 -4.46,-10.42 0,-3.72 1.49,-7.44 4.46,-10.42 5.95,-5.95 15.63,-5.95 20.84,0l37.95 37.95 0 -113.1c0,-8.19 6.69,-14.88 14.87,-14.88 8.18,0 14.88,6.7 14.88,14.88l0 112.36 37.95 -37.95c5.95,-5.95 15.63,-5.95 20.84,0 2.98,2.98 4.46,6.7 4.46,10.42 0,3.72 -1.49,7.44 -4.46,10.42l0 -0.01z" p-id="1518"/>
  </g>
 </g>
</svg>
