<?xml version="1.0" encoding="UTF-8"?>
<!DOCTYPE svg PUBLIC "-//W3C//DTD SVG 1.1//EN" "http://www.w3.org/Graphics/SVG/1.1/DTD/svg11.dtd">
<!-- Creator: CorelDRAW 2021 (64-Bit) -->
<svg xmlns="http://www.w3.org/2000/svg" xml:space="preserve" width="50mm" height="50mm" version="1.1" style="shape-rendering:geometricPrecision; text-rendering:geometricPrecision; image-rendering:optimizeQuality; fill-rule:evenodd; clip-rule:evenodd"
viewBox="0 0 5000 5000"
 xmlns:xlink="http://www.w3.org/1999/xlink"
 xmlns:xodm="http://www.corel.com/coreldraw/odm/2003">
 <defs>
  <style type="text/css">
   <![CDATA[
    .fil0 {fill:#26A371;fill-rule:nonzero}
    .fil1 {fill:#3D3D45;fill-rule:nonzero}
   ]]>
  </style>
 </defs>
 <g id="图层_x0020_1">
  <metadata id="CorelCorpID_0Corel-Layer"/>
  <g id="_2170854983872">
   <path class="fil0" d="M2545.77 2240.01c-59.06,23.31 -43.3,27.18 -115.26,-1.47l-1924.49 -799.26c-15.75,-14.74 -24.78,-35.2 -25.71,-56.67 -0.46,-21.46 7.19,-42.38 22.39,-58.04l1876.4 -798.52c42.38,-20 86.15,-30.96 163.82,0.92l1911.59 783.23c32.89,31.88 34.27,83.84 3.78,115.26l-1912.52 814.55zm58.05 2176.85c0,48.55 39.52,88.08 88.54,88.08l1832.08 -955.06c71.4,-44.78 88.08,-123.83 88.08,-238.54l0 -1611.69c0,-23.31 -9.03,-45.7 -25.71,-62.38 -16.67,-16.67 -39.06,-25.7 -62.37,-25.7l-1832.54 768.95c-88.55,34.27 -88.55,79.51 -88.55,128.06l0.47 1908.28zm-308.01 -2036.34l-1832.08 -768.95c-23.31,0 -45.7,9.03 -62.37,25.7 -16.68,16.68 -25.71,39.07 -25.71,62.38l0 1852.53c0,19.53 -11.88,48.1 88.08,88.08l1832.08 865.14c48.56,0 88.08,-39.53 88.08,-88.08l0 -1908.74c0,-48.55 0,-93.79 -88.08,-128.06zm-598.04 456.15c-234.76,-102.36 -468.96,-204.72 -703.26,-308 -38.6,-16.68 -58.04,-23.77 -58.04,-54.27l0 -203.89c-0.92,-26.63 15.2,-61.92 46.16,-50.03l722.24 317.12c67.16,31.88 46.62,35.75 49.47,157.09l0 100.98c0.46,19.99 -18.61,57.12 -56.66,40.91l0.09 0.09zm0 0z" p-id="4664"/>
   <path class="fil1" d="M2545.77 2240.01c-59.06,23.31 -43.3,27.18 -115.26,-1.47l-1924.49 -799.26c-15.75,-14.74 -24.78,-35.2 -25.71,-56.67 -0.46,-21.46 7.19,-42.38 22.39,-58.04l1876.4 -798.52c42.38,-20 86.15,-30.96 163.82,0.92l1911.59 783.23c32.89,31.88 34.27,83.84 3.78,115.26l-1912.52 814.55z" p-id="4664"/>
  </g>
 </g>
</svg>
