<?xml version="1.0" standalone="no"?><!DOCTYPE svg PUBLIC "-//W3C//DTD SVG 1.1//EN" "http://www.w3.org/Graphics/SVG/1.1/DTD/svg11.dtd"><svg t="1649814793461" class="icon" viewBox="0 0 1024 1024" version="1.1" xmlns="http://www.w3.org/2000/svg" p-id="1029" xmlns:xlink="http://www.w3.org/1999/xlink" width="20" height="20"><defs><style type="text/css">@font-face { font-family: feedback-iconfont; src: url("//at.alicdn.com/t/font_1031158_u69w8yhxdu.woff2?t=1630033759944") format("woff2"), url("//at.alicdn.com/t/font_1031158_u69w8yhxdu.woff?t=1630033759944") format("woff"), url("//at.alicdn.com/t/font_1031158_u69w8yhxdu.ttf?t=1630033759944") format("truetype"); }
</style></defs><path d="M768 0c141.38368 0 256 114.61632 256 256v512c0 141.38368-114.61632 256-256 256H256c-141.38368 0-256-114.61632-256-256V256C0 114.61632 114.61632 0 256 0h512z m-100.8128 301.76256a34.05312 34.05312 0 0 0-46.42816 3.10272l-107.86304 115.31776-107.91424-115.32288a34.06336 34.06336 0 0 0-48.04096-1.67936 29.62432 29.62432 0 0 0-1.152 41.8816l92.8256 98.08896H345.6a31.3856 31.3856 0 1 0 0 62.7712h135.8336v69.08416h-137.728a31.3856 31.3856 0 0 0 0 62.7712h137.728v72.448a32.17408 32.17408 0 0 0 64.34304 0v-72.4992h137.75872a31.36 31.36 0 0 0 0-62.72h-137.75872V505.86624h139.65824a31.36 31.36 0 1 0 0-62.72H577.1264l92.8256-98.08384a29.62944 29.62944 0 0 0-2.7648-43.29984z" fill="#999999" p-id="1030"></path></svg>