<?xml version="1.0" standalone="no"?><!DOCTYPE svg PUBLIC "-//W3C//DTD SVG 1.1//EN" "http://www.w3.org/Graphics/SVG/1.1/DTD/svg11.dtd"><svg t="1649317895433" class="icon" viewBox="0 0 1024 1024" version="1.1" xmlns="http://www.w3.org/2000/svg" p-id="1624" xmlns:xlink="http://www.w3.org/1999/xlink" width="20" height="20"><defs><style type="text/css">@font-face { font-family: feedback-iconfont; src: url("//at.alicdn.com/t/font_1031158_u69w8yhxdu.woff2?t=1630033759944") format("woff2"), url("//at.alicdn.com/t/font_1031158_u69w8yhxdu.woff?t=1630033759944") format("woff"), url("//at.alicdn.com/t/font_1031158_u69w8yhxdu.ttf?t=1630033759944") format("truetype"); }
</style></defs><path d="M407.74651813 474.02687724H121.22204721c-31.75933906 0-57.30489443-25.54555536-57.30489442-57.30489443V130.19751188c0-31.75933906 25.54555536-57.30489443 57.30489442-57.3048932h286.52447092c31.75933906 0 57.30489443 25.54555536 57.30489442 57.3048932v286.52447093c0 31.75933906-25.54555536 57.30489443-57.30489442 57.30489443zM407.74651813 959.39242667H121.22204721c-31.75933906 0-57.30489443-25.54555536-57.30489442-57.30489444V615.56306132c0-31.75933906 25.54555536-57.30489443 57.30489442-57.3048932h286.52447092c31.75933906 0 57.30489443 25.54555536 57.30489442 57.3048932v286.52447091c0 31.75933906-25.54555536 57.30489443-57.30489442 57.30489444zM902.77795279 474.02687724h-286.52447092c-31.75933906 0-57.30489443-25.54555536-57.30489442-57.30489443V130.19751188c0-31.75933906 25.54555536-57.30489443 57.30489442-57.3048932h286.52447092c31.75933906 0 57.30489443 25.54555536 57.30489442 57.3048932v286.52447093c0 31.75933906-25.54555536 57.30489443-57.30489442 57.30489443zM902.77795279 959.39242667h-286.52447092c-31.75933906 0-57.30489443-25.54555536-57.30489442-57.30489444V615.56306132c0-31.75933906 25.54555536-57.30489443 57.30489442-57.3048932h286.52447092c31.75933906 0 57.30489443 25.54555536 57.30489442 57.3048932v286.52447091c0 31.75933906-25.54555536 57.30489443-57.30489442 57.30489444z" fill="#999999" p-id="1625"></path></svg>