<?xml version="1.0" standalone="no"?><!DOCTYPE svg PUBLIC "-//W3C//DTD SVG 1.1//EN" "http://www.w3.org/Graphics/SVG/1.1/DTD/svg11.dtd"><svg t="1649317898942" class="icon" viewBox="0 0 1024 1024" version="1.1" xmlns="http://www.w3.org/2000/svg" p-id="1773" xmlns:xlink="http://www.w3.org/1999/xlink" width="20" height="20"><defs><style type="text/css">@font-face { font-family: feedback-iconfont; src: url("//at.alicdn.com/t/font_1031158_u69w8yhxdu.woff2?t=1630033759944") format("woff2"), url("//at.alicdn.com/t/font_1031158_u69w8yhxdu.woff?t=1630033759944") format("woff"), url("//at.alicdn.com/t/font_1031158_u69w8yhxdu.ttf?t=1630033759944") format("truetype"); }
</style></defs><path d="M896 222.39999969H519.99999969L416 97.59999969c-6.40000031-7.99999969-14.4-11.20000031-24-11.19999938H128c-35.20000031 0-64.00000031 28.8-64.00000031 63.99999938v723.20000062c0 35.20000031 28.8 64.00000031 64.00000031 63.99999938h768c35.20000031 0 64.00000031-28.8 64.00000031-63.99999938V286.4c0-35.20000031-28.8-64.00000031-64.00000031-64.00000031zM670.4 625.59999969l-136.00000031 136.00000031c-3.19999969 3.19999969-6.40000031 6.40000031-11.19999938 7.99999969l-3.20000062 1.60000031c-1.60000031 0-3.19999969 1.60000031-4.8 1.60000031h-6.39999938c-7.99999969 0-14.4-3.19999969-19.2-9.6l-136.00000031-136.00000031c-6.40000031-6.40000031-9.6-14.4-9.6-22.39999969 0-7.99999969 3.19999969-16.00000031 9.6-22.40000062 12.79999969-12.79999969 33.6-12.79999969 44.80000031 0l81.6 81.6V420.8c0-17.59999969 14.4-31.99999969 31.99999969-31.99999969s31.99999969 14.4 31.99999969 31.99999969v241.60000031l81.6-81.6c12.79999969-12.79999969 33.6-12.79999969 44.80000031 0 6.40000031 6.40000031 9.6 14.4 9.6 22.39999969 0 7.99999969-3.19999969 16.00000031-9.6 22.39999969z" fill="#999999" p-id="1774"></path></svg>